inDegrees=yes
name=ik_OwnShooting_orientations.mot
DataType=double
version=3
OpenSimVersion=4.3-2021-08-27-4bc7ad9
endheader
time	pelvis_tilt	pelvis_list	pelvis_rotation	pelvis_tx	pelvis_ty	pelvis_tz	hip_flexion_r	hip_adduction_r	hip_rotation_r	knee_angle_r	knee_angle_r_beta	ankle_angle_r	subtalar_angle_r	mtp_angle_r	hip_flexion_l	hip_adduction_l	hip_rotation_l	knee_angle_l	knee_angle_l_beta	ankle_angle_l	subtalar_angle_l	mtp_angle_l	lumbar_extension	lumbar_bending	lumbar_rotation	arm_flex_r	arm_add_r	arm_rot_r	elbow_flex_r	pro_sup_r	wrist_flex_r	wrist_dev_r	arm_flex_l	arm_add_l	arm_rot_l	elbow_flex_l	pro_sup_l	wrist_flex_l	wrist_dev_l
12.5	-1.558615296103728	0.1420085680957333	-143.8802503880475	0	0.9399999999999999	0	44.97186376895347	-10.00000730681652	0	59.98971953436094	1.047018123222558	-5.000000015098017	0	0	44.97186376895347	-10.00000730681652	0	59.98971953436094	1.047018123222558	-5.000000015098017	0	0	1.046555075018329	0.4150220040093237	-2.539217687753136	45.0184403287813	-60.45286002458089	-0.3271931925205461	0.003325918558931381	45.00006614476153	0	0	0	-14.71153871176735	0	75.03499841477399	45.00006614476153	0	0
12.51	-1.555668147679358	0.1750906969949546	-143.8432157953252	0	0.9399999999999999	0	44.97186597204966	-10.00000730483715	0	59.98972018091837	1.047018134507114	-5.000000015040259	0	0	44.97186597204966	-10.00000730483715	0	59.98972018091837	1.047018134507114	-5.000000015040259	0	0	1.067377838830408	0.3921665433124129	-2.553072689372267	45.03015436785672	-60.76519508742653	-0.3323128627371095	0.003342101543795933	45.00006613063687	0	3.045657899886418e-36	0	-14.71155035303884	0	75.03499568815448	45.00006613063687	0	3.045657899886418e-36
12.52	-1.56532090033061	0.1945265531467421	-143.8535290407747	0	0.9399999999999999	0	44.97189273936453	-10.00000728043241	0	59.98972793608294	1.04701826986027	-5.000000014326369	0	0	44.97189273936453	-10.00000728043241	0	59.98972793608294	1.04701826986027	-5.000000014326369	0	0	1.074755777800251	0.4765579427525466	-2.539751356524405	45.28436647432493	-61.23698744921533	-0.0791366518292035	0.003361065458786355	45.00006595690519	0	0	0	-14.71169052314335	0	75.03496256010563	45.00006595690519	0	0
12.53	-1.569316351807807	0.1980204487272015	-143.8396656908567	0	0.9399999999999999	0	44.97189662064063	-10.00000727692593	0	59.98972906793315	1.047018289614783	-5.00000001422401	0	0	44.97189662064063	-10.00000727692593	0	59.98972906793315	1.047018289614783	-5.00000001422401	0	0	1.090304325519719	0.4485800447094723	-2.547813856961263	45.26883721525166	-61.56565371057555	-0.05250357849158754	0.003376135892989715	45.00006593189971	0	0	0	-14.71171094614512	0	75.03495775651929	45.00006593189971	0	0
12.54	-1.580547658357822	0.2239162082054895	-143.8552957641859	0	0.9399999999999999	0	44.97192720145551	-10.00000724912331	0	59.98973792964354	1.047018444280806	-5.000000013411725	0	0	44.97192720145551	-10.00000724912331	0	59.98973792964354	1.047018444280806	-5.000000013411725	0	0	1.0992703879008	0.4999364323492416	-2.548638615265734	45.49829760121077	-61.88864627411156	0.2187996307053131	0.003388370430077119	45.0000657338128	0	0	0	-14.71187117010398	0	75.0349199087658	45.0000657338128	0	0
12.55	-1.592373252220092	0.2451937827996027	-143.8291031656189	0	0.9399999999999999	0	44.97192930928576	-10.00000724724182	0	59.98973854897627	1.047018455090202	-5.000000013356965	0	0	44.97192930928576	-10.00000724724182	0	59.98973854897627	1.047018455090202	-5.000000013356965	0	0	1.114544593105915	0.4759854680390195	-2.568799224083905	45.49427824440765	-62.1490542175579	0.2153042862781153	0.003402871496360128	45.00006572036233	0	1.077613842297402e-35	0	-14.71188232582815	0	75.03491730005035	45.00006572036233	0	1.077613842297402e-35
12.56	-1.596844175917115	0.2664205853685254	-143.8088070375445	0	0.9399999999999999	0	44.97196595040243	-10.00000721402954	0	59.98974916707741	1.047018640411027	-5.000000012387956	0	0	44.97196595040243	-10.00000721402954	0	59.98974916707741	1.047018640411027	-5.000000012387956	0	0	1.142393822956784	0.5395083176392217	-2.598256263670507	45.83759833912092	-62.63541465149013	0.529887144935384	0.003417218263811167	45.000065483515	0	0	0	-14.71207439005689	0	75.03487195188148	45.000065483515	0	0
12.57	-1.60109480764436	0.2664451169719082	-143.7921007900017	0	0.9399999999999999	0	44.97196766216227	-10.00000721251141	0	59.98974967136592	1.047018649212522	-5.000000012343861	0	0	44.97196766216227	-10.00000721251141	0	59.98974967136592	1.047018649212522	-5.000000012343861	0	0	1.148544618540244	0.5251429046289344	-2.639258119545093	45.78741664667229	-62.84965897665028	0.5404231273268003	0.003434517341257671	45.00006547264536	0	0	0	-14.71208347094193	0	75.03486983335489	45.00006547264536	0	0
12.58	-1.583276108558634	0.2956079653776554	-143.7773896836408	0	0.9399999999999999	0	44.97199988832544	-10.00000718339992	0	59.9897590141004	1.047018812273999	-5.000000011495685	0	0	44.97199988832544	-10.00000718339992	0	59.9897590141004	1.047018812273999	-5.000000011495685	0	0	1.192130257666805	0.5552584425537541	-2.643566544276951	46.13045084546017	-63.29156691702066	0.8940145116893724	0.003444289946627137	45.00006526484	0	0	0	-14.71225251724839	0	75.0348299492675	45.00006526484	0	0
12.59	-1.577444830803851	0.3055689077282613	-143.7582948920265	0	0.9399999999999999	0	44.97200426308385	-10.00000717948152	0	59.98976028989448	1.047018834540807	-5.000000011381749	0	0	44.97200426308385	-10.00000717948152	0	59.98976028989448	1.047018834540807	-5.000000011381749	0	0	1.210233272655115	0.5201860571911641	-2.62389116934014	46.1967679478272	-63.69624581770924	0.9097821296464651	0.003460266852463185	45.00006523682303	0	0	0	-14.71227556681598	0	75.03482453493224	45.00006523682303	0	0
12.6	-1.603214349759327	0.3275160672726752	-143.7622152374332	0	0.9399999999999999	0	44.97203288754755	-10.00000715370824	0	59.98976859228392	1.047018979444838	-5.000000010631843	0	0	44.97203288754755	-10.00000715370824	0	59.98976859228392	1.047018979444838	-5.000000010631843	0	0	1.206086061387206	0.6022341603019298	-2.642924855598102	46.48133228414916	-64.00103656903504	1.21388553724376	0.003470991647599534	45.00006505267519	0	0	0	-14.71242583027146	0	75.03478910841824	45.00006505267519	0	0
12.61	-1.614062650221035	0.3338881770579105	-143.7392917846154	0	0.9399999999999999	0	44.97203695875057	-10.00000715007457	0	59.98976978042817	1.047019000181867	-5.000000010526326	0	0	44.97203695875057	-10.00000715007457	0	59.98976978042817	1.047019000181867	-5.000000010526326	0	0	1.214738588863874	0.5717529283631885	-2.646016585255077	46.50761177685979	-64.34235678849757	1.21990897471557	0.003485971854937136	45.00006502666904	0	0	0	-14.71244730017775	0	75.03478406977239	45.00006502666904	0	0
12.62	-1.629895291236149	0.3382482182870437	-143.735497999037	0	0.9399999999999999	0	44.97204122153987	-10.00000714626992	0	59.98977102415054	1.047019021888918	-5.000000010415858	0	0	44.97204122153987	-10.00000714626992	0	59.98977102415054	1.047019021888918	-5.000000010415858	0	0	1.215127854548571	0.5679591727711331	-2.628204042766338	46.54232338624813	-64.70892096710672	1.255671465316752	0.003503239919607875	45.00006499943793	0	0	0	-14.71246977722905	0	75.03477879401348	45.00006499943793	0	0
12.63	-1.647229345035679	0.358715927791066	-143.7485471592093	0	0.9399999999999999	0	44.97207675013887	-10.00000711438513	0	59.98978132946199	1.047019201750533	-5.000000009489509	0	0	44.97207675013887	-10.00000711438513	0	59.98978132946199	1.047019201750533	-5.000000009489509	0	0	1.207447257443258	0.6401425335474584	-2.636203953067279	46.84960764674697	-65.05957935230371	1.587396742762149	0.003516014021470471	45.00006477139538	0	0	0	-14.7126563790513	0	75.03473482272982	45.00006477139538	0	0
12.64	-1.655058730144578	0.358223960746324	-143.745004693729	0	0.9399999999999999	0	44.97207846307244	-10.00000711288508	0	59.98978183566868	1.047019210585506	-5.000000009446144	0	0	44.97207846307244	-10.00000711288508	0	59.98978183566868	1.047019210585506	-5.000000009446144	0	0	1.215169558061943	0.6323087467373294	-2.642751271599144	46.81135972315811	-65.23207784246128	1.590764133907889	0.003530631667754218	45.00006476061881	0	0	0	-14.71266549844901	0	75.03473270275053	45.00006476061881	0	0
